<svg width="32" height="32" viewBox="0 0 32 32" fill="none" xmlns="http://www.w3.org/2000/svg">
<path d="M26.8296 25.5948C27.1706 25.9358 27.1706 26.4886 26.8296 26.8296C20.692 32.9672 10.7409 32.9672 4.60326 26.8296C-1.53438 20.692 -1.53438 10.7409 4.60326 4.60323C10.7283 -1.52178 20.651 -1.53438 26.7917 4.56541L27.1328 1.91102C27.1943 1.43273 27.6319 1.09484 28.1101 1.15631C28.5884 1.21778 28.9263 1.65534 28.8649 2.13363L28.3071 6.4734C28.2992 6.54982 28.2812 6.6238 28.2545 6.69379C28.2102 6.81037 28.142 6.91396 28.0566 6.99946C27.9713 7.08506 27.8679 7.15346 27.7514 7.19805C27.6815 7.22497 27.6076 7.24308 27.5311 7.25117L23.1793 7.821C22.7011 7.8836 22.2628 7.54675 22.2002 7.06861C22.1376 6.59048 22.4744 6.15212 22.9525 6.08951L25.5107 5.75455C20.0485 0.382492 11.2658 0.410316 5.83806 5.83803C0.382374 11.2937 0.382374 20.1391 5.83805 25.5948C11.2937 31.0505 20.1391 31.0505 25.5948 25.5948C25.9358 25.2538 26.4886 25.2538 26.8296 25.5948Z" fill="#002EFF"/>
<path d="M10.5596 19.4639C10.5596 19.5792 10.4967 19.642 10.3814 19.642H5.7713C5.65605 19.642 5.59318 19.5792 5.59318 19.4639V18.5838C5.59318 18.5 5.62461 18.4371 5.68748 18.3638C6.24384 17.8074 6.75866 17.2372 7.24726 16.696C7.49477 16.4219 7.73555 16.1552 7.9716 15.9015C8.53739 15.2729 8.92506 14.7175 8.92506 14.3299C8.92506 13.8374 8.54787 13.4917 7.98208 13.4917C7.41628 13.4917 7.03909 13.8374 7.03909 14.3508V14.5604C7.03909 14.6756 6.97622 14.7385 6.86097 14.7385H5.72939C5.61414 14.7385 5.55127 14.6756 5.55127 14.5604V14.1203C5.61414 12.9573 6.64094 12.2239 7.98208 12.2239C9.50133 12.2239 10.4234 13.1564 10.4234 14.2984C10.4234 14.9061 10.0986 15.5138 9.54324 16.1949C9.13294 16.7017 8.63617 17.2209 8.10034 17.7809C7.93832 17.9502 7.77273 18.1233 7.60488 18.3009C7.56297 18.3323 7.58393 18.3742 7.63631 18.3742H10.3814C10.4967 18.3742 10.5596 18.4371 10.5596 18.5524V19.4639Z" fill="#FF3D00"/>
<path d="M16.213 16.3835C16.213 16.4149 16.2339 16.4464 16.2758 16.4464H16.653C16.7683 16.4464 16.8312 16.5092 16.8312 16.6245V17.5779C16.8312 17.6932 16.7683 17.7561 16.653 17.7561H16.2758C16.2339 17.7561 16.213 17.777 16.213 17.8189V19.4639C16.213 19.5792 16.1501 19.642 16.0349 19.642H14.9138C14.7985 19.642 14.7356 19.5792 14.7356 19.4639V17.8189C14.7356 17.777 14.7147 17.7561 14.6728 17.7561H11.5085C11.3933 17.7561 11.3304 17.6932 11.3304 17.5779V16.8235C11.3304 16.7397 11.3409 16.6873 11.3723 16.6035L13.2373 12.4439C13.2792 12.3601 13.3526 12.3077 13.4469 12.3077H14.6413C14.7775 12.3077 14.8299 12.402 14.7775 12.5173L13.0592 16.373C13.0383 16.4254 13.0697 16.4464 13.1116 16.4464H14.6728C14.7147 16.4464 14.7356 16.4254 14.7356 16.3835V15.1471C14.7356 15.0319 14.7985 14.969 14.9138 14.969H16.0349C16.1501 14.969 16.213 15.0319 16.213 15.1471V16.3835Z" fill="#FF3D00"/>
<path d="M19.4136 14.7595C19.7069 14.3613 20.126 14.1727 20.6813 14.1727C21.7815 14.1727 22.5464 14.8852 22.5464 16.0796V19.4639C22.5464 19.5792 22.4835 19.642 22.3682 19.642H21.2471C21.1319 19.642 21.069 19.5792 21.069 19.4639V16.3835C21.069 15.8282 20.7337 15.4405 20.2203 15.4405C19.7069 15.4405 19.3507 15.8177 19.3507 16.3835V19.4639C19.3507 19.5792 19.2878 19.642 19.1726 19.642H18.0515C17.9362 19.642 17.8734 19.5792 17.8734 19.4639V12.4858C17.8734 12.3706 17.9362 12.3077 18.0515 12.3077H19.1726C19.2878 12.3077 19.3507 12.3706 19.3507 12.4858V14.728C19.3507 14.7804 19.3821 14.8014 19.4136 14.7595Z" fill="#FF3D00"/>
<path d="M25.154 14.7909C25.4054 14.4242 25.7722 14.1832 26.2856 14.1832C26.537 14.1832 26.7151 14.2356 26.8409 14.3089C26.9352 14.3508 26.9561 14.4347 26.9352 14.529L26.7361 15.6291C26.7151 15.7548 26.6523 15.7653 26.5265 15.7444C26.3903 15.7024 26.1913 15.692 25.9817 15.7234C25.5102 15.7653 25.0806 16.0901 25.0806 16.6559V19.4639C25.0806 19.5792 25.0178 19.642 24.9025 19.642H23.7814C23.6662 19.642 23.6033 19.5792 23.6033 19.4639V14.4347C23.6033 14.3194 23.6662 14.2565 23.7814 14.2565H24.9025C25.0178 14.2565 25.0806 14.3194 25.0806 14.4347V14.7595C25.0806 14.8118 25.1121 14.8328 25.154 14.7909Z" fill="#FF3D00"/>
<path d="M31.954 18.0704C31.954 19.1286 31.0319 19.7154 29.6803 19.7154C28.2554 19.7154 27.3648 19.0658 27.3648 18.1542V18.1018C27.3648 17.9866 27.4276 17.9237 27.5429 17.9237H28.6011C28.7164 17.9237 28.7792 17.9447 28.7792 17.9866V18.0599C28.7792 18.3638 29.146 18.6152 29.6698 18.6152C30.1518 18.6152 30.4661 18.4057 30.4661 18.1228C30.4661 17.8468 30.1209 17.7571 29.6638 17.6383C29.4266 17.5767 29.1593 17.5072 28.8945 17.3998C28.182 17.1588 27.4171 16.8026 27.4171 15.8701C27.4171 14.8223 28.3182 14.1832 29.6174 14.1832C30.9691 14.1832 31.8597 14.8852 31.8597 15.8806C31.8597 15.9539 31.7968 16.0063 31.6815 16.0063H30.6547C30.5395 16.0063 30.4766 15.9853 30.4766 15.9434V15.8806C30.4766 15.5767 30.1623 15.3357 29.6279 15.3357C29.1774 15.3357 28.8316 15.5034 28.8316 15.8072C28.8316 16.1172 29.233 16.2151 29.7557 16.3426C29.9397 16.3875 30.1386 16.436 30.3404 16.4987C31.1681 16.7397 31.954 17.1064 31.954 18.0704Z" fill="#FF3D00"/>
</svg>
