<svg width="24" height="24" viewBox="0 0 24 24" fill="none" xmlns="http://www.w3.org/2000/svg">
<path fill-rule="evenodd" clip-rule="evenodd" d="M4.99996 8.66667C6.61658 8.66667 8.02644 7.7814 8.77122 6.4692L14.9773 10.0523C14.7769 10.5512 14.6666 11.0961 14.6666 11.6667C14.6666 12.4377 14.868 13.1618 15.2211 13.7891L8.77122 17.5129C8.02644 16.2007 6.61658 15.3154 4.99996 15.3154C2.60673 15.3154 0.666626 17.2555 0.666626 19.6488C0.666626 22.042 2.60673 23.9821 4.99996 23.9821C7.39319 23.9821 9.33329 22.042 9.33329 19.6488C9.33329 19.3507 9.30319 19.0596 9.24587 18.7785L16.0561 14.8466C16.829 15.5624 17.8634 16 19 16C21.3932 16 23.3333 14.0599 23.3333 11.6667C23.3333 9.27343 21.3932 7.33333 19 7.33333C17.6555 7.33333 16.4541 7.94557 15.6593 8.90644L9.24587 5.20364C9.30319 4.92249 9.33329 4.63142 9.33329 4.33333C9.33329 1.9401 7.39319 0 4.99996 0C2.60673 0 0.666626 1.9401 0.666626 4.33333C0.666626 6.72657 2.60673 8.66667 4.99996 8.66667ZM4.99996 7.33333C6.65681 7.33333 7.99996 5.99019 7.99996 4.33333C7.99996 2.67648 6.65681 1.33333 4.99996 1.33333C3.34311 1.33333 1.99996 2.67648 1.99996 4.33333C1.99996 5.99019 3.34311 7.33333 4.99996 7.33333ZM7.99996 19.6488C7.99996 17.9919 6.65681 16.6488 4.99996 16.6488C3.34311 16.6488 1.99996 17.9919 1.99996 19.6488C1.99996 21.3056 3.34311 22.6488 4.99996 22.6488C6.65681 22.6488 7.99996 21.3056 7.99996 19.6488ZM22 11.6667C22 13.3235 20.6568 14.6667 19 14.6667C17.3431 14.6667 16 13.3235 16 11.6667C16 10.0098 17.3431 8.66667 19 8.66667C20.6568 8.66667 22 10.0098 22 11.6667Z" fill="#002EFF"/>
</svg>
