<svg width="24" height="24" viewBox="0 0 24 24" fill="none" xmlns="http://www.w3.org/2000/svg">
<path d="M10.0052 19.0516C9.63706 19.0516 9.33858 19.3501 9.33858 19.7183C9.33858 20.0865 9.63706 20.385 10.0052 20.385H14.0052C14.3734 20.385 14.6719 20.0865 14.6719 19.7183C14.6719 19.3501 14.3734 19.0516 14.0052 19.0516H10.0052Z" fill="#979797"/>
<path fill-rule="evenodd" clip-rule="evenodd" d="M6.00004 0C4.52728 0 3.33337 1.19391 3.33337 2.66667V21.3333C3.33337 22.8061 4.52728 24 6.00004 24H18C19.4728 24 20.6667 22.8061 20.6667 21.3333V2.66667C20.6667 1.19391 19.4728 0 18 0H6.00004ZM4.66671 2.66667C4.66671 1.93029 5.26366 1.33333 6.00004 1.33333H18C18.7364 1.33333 19.3334 1.93029 19.3334 2.66667V21.3333C19.3334 22.0697 18.7364 22.6667 18 22.6667H6.00004C5.26366 22.6667 4.66671 22.0697 4.66671 21.3333V2.66667Z" fill="#979797"/>
<path fill-rule="evenodd" clip-rule="evenodd" d="M8.84151 14.9091C8.84779 13.7968 8.86457 11.133 8.87535 9.49169L8.70434 9.49059C7.66027 9.48386 6.67018 8.76273 6.48595 7.63506C6.35092 6.80813 6.35631 5.96925 6.50198 5.14413C6.7007 4.01887 7.70008 3.31052 8.74412 3.31725L8.93887 3.3185C9.86319 3.32444 10.7319 3.53319 11.4084 4.01299C11.6314 4.17111 11.828 4.35592 11.9927 4.56292C12.1616 4.35424 12.3632 4.16879 12.5916 4.01118C13.2743 3.54015 14.1456 3.34261 15.0699 3.34858L15.2647 3.34984C16.3087 3.35656 17.2989 4.07767 17.4831 5.20539C17.6181 6.03233 17.6127 6.87117 17.467 7.69629C17.2683 8.82149 16.269 9.5299 15.2249 9.52318L15.0539 9.52208C15.0435 11.1634 15.026 13.8271 15.0179 14.9394C15.0105 15.9673 14.1706 16.7744 13.1615 16.7679C12.6892 16.7648 12.2539 16.5835 11.9261 16.2845C11.5933 16.5848 11.1515 16.7643 10.6742 16.7613C9.66516 16.7548 8.8357 15.9369 8.84151 14.9091ZM11.2207 6.42342C11.224 6.55261 11.2259 6.83739 11.2268 7.22961C11.2273 7.49361 11.2274 7.80628 11.227 8.15295C11.2252 9.96434 11.2125 12.7041 11.2024 14.2785C11.2009 14.5241 11.1994 14.7414 11.198 14.9224L11.1979 14.9245C11.1958 15.207 10.9653 15.4298 10.6828 15.428C10.4003 15.4261 10.1732 15.1991 10.1748 14.9166L10.1786 14.2722C10.1866 12.9344 10.2005 10.7442 10.2095 9.37365L10.2156 8.46066C10.2169 8.28388 10.2177 8.17114 10.2181 8.14151C10.2185 8.10409 10.1991 8.06889 10.1663 8.04774C10.1336 8.02659 10.0919 8.02224 10.055 8.03617C10.0145 8.05151 9.95901 8.06535 9.89384 8.07773C9.7699 8.10128 9.611 8.11954 9.45366 8.1327L9.45216 8.13283C9.23584 8.15088 9.0227 8.15929 8.9077 8.15854L8.71293 8.15728C8.25432 8.15433 7.87114 7.84429 7.80184 7.42008C7.69098 6.74116 7.69541 6.05339 7.81501 5.37594C7.88976 4.95267 8.2769 4.6476 8.73553 4.65055L8.9303 4.65181C10.4205 4.66138 11.2277 5.32895 11.2222 6.18198L11.2207 6.42342ZM12.7483 6.42384C12.7433 6.55298 12.7377 6.8377 12.7318 7.22988C12.7279 7.49385 12.7238 7.80649 12.7197 8.15314C12.6981 9.9644 12.6755 12.7041 12.6653 14.2785C12.6637 14.5241 12.6624 14.7414 12.6615 14.9224L12.6615 14.9245C12.66 15.207 12.8876 15.4327 13.1701 15.4346C13.4526 15.4364 13.6826 15.2123 13.6846 14.9298L13.6892 14.2854C13.6984 12.9476 13.7128 10.7574 13.7214 9.38686L13.727 8.47386C13.728 8.29708 13.7287 8.18434 13.7287 8.15471C13.7287 8.11728 13.7486 8.08234 13.7816 8.06161C13.8146 8.04088 13.8564 8.03707 13.8931 8.05148C13.9334 8.06733 13.9887 8.08189 14.0537 8.09511C14.1773 8.12025 14.336 8.14056 14.4931 8.15575L14.4946 8.15589C14.7107 8.17673 14.9237 8.18789 15.0387 8.18862L15.2335 8.18987C15.6921 8.19283 16.0793 7.88776 16.154 7.46447C16.2736 6.78703 16.2781 6.09927 16.1672 5.42033C16.0979 4.99613 15.7147 4.6861 15.2561 4.68314L15.0613 4.68189C13.5711 4.67226 12.7554 5.32937 12.7499 6.1824L12.7483 6.42384Z" fill="#979797"/>
</svg>
