<svg width="24" height="24" viewBox="0 0 24 24" fill="none" xmlns="http://www.w3.org/2000/svg">
<g clip-path="url(#clip0)">
<path d="M8.29657 15.3486C8.00704 15.5761 7.95672 15.9952 8.18417 16.2847C8.41162 16.5742 8.83072 16.6246 9.12025 16.3971C9.96437 15.734 11.0215 15.3807 12.0948 15.4029C13.0974 15.4235 14.0868 15.7769 14.8758 16.3961C15.1654 16.6234 15.5845 16.5729 15.8118 16.2833C16.0391 15.9936 15.9886 15.5745 15.699 15.3472C14.6826 14.5496 13.414 14.0965 12.1222 14.0698C10.7411 14.0413 9.38313 14.495 8.29657 15.3486Z" fill="#979797"/>
<path d="M10.0457 18.6769C9.8197 18.3862 9.87218 17.9673 10.1629 17.7414C10.6828 17.3372 11.3304 17.1246 11.9885 17.1415C12.6043 17.1574 13.2067 17.376 13.6893 17.7588C13.9778 17.9876 14.0261 18.407 13.7973 18.6954C13.5685 18.9839 13.1492 19.0323 12.8607 18.8035C12.6046 18.6003 12.281 18.4828 11.9542 18.4744C11.604 18.4654 11.2577 18.5791 10.9812 18.7941C10.6905 19.02 10.2716 18.9676 10.0457 18.6769Z" fill="#979797"/>
<path d="M6.23538 12.8398C5.95465 13.0781 5.92021 13.4988 6.15845 13.7795C6.39669 14.0602 6.81739 14.0947 7.09812 13.8564C8.49315 12.6725 10.2691 12.0284 12.0988 12.0429C13.8471 12.0568 15.5534 12.6782 16.9012 13.7918C17.185 14.0264 17.6052 13.9864 17.8397 13.7026C18.0743 13.4187 18.0343 12.9985 17.7505 12.764C16.1666 11.4552 14.164 10.7259 12.1094 10.7096C9.96003 10.6926 7.87411 11.4491 6.23538 12.8398Z" fill="#979797"/>
<path fill-rule="evenodd" clip-rule="evenodd" d="M11.1115 0.861069L1.08664 10.2889C0.818694 10.5409 0.666748 10.8923 0.666748 11.2602V22C0.666748 23.1045 1.56218 24 2.66675 24H21.3334C22.438 24 23.3334 23.1045 23.3334 22V11.2583C23.3334 10.8916 23.1824 10.541 22.9158 10.2892L12.9407 0.863245C12.4276 0.378457 11.6257 0.377503 11.1115 0.861069ZM2.00008 11.2602L12.0249 1.83236L22.0001 11.2583V22C22.0001 22.3682 21.7016 22.6666 21.3334 22.6666H2.66675C2.29856 22.6666 2.00008 22.3682 2.00008 22V11.2602Z" fill="#979797"/>
</g>
<defs>
<clipPath id="clip0">
<rect width="24" height="24" fill="white"/>
</clipPath>
</defs>
</svg>
