<svg width="34" height="36" viewBox="0 0 34 36" fill="none" xmlns="http://www.w3.org/2000/svg">
<g clip-path="url(#clip0)">
<path d="M0.946713 16.2177L16.4646 1.62394C16.7423 1.36281 17.1754 1.36333 17.4524 1.62512L32.8945 16.2169C33.0384 16.3529 33.12 16.5422 33.12 16.7402V33.8401C33.12 34.6353 32.4753 35.2801 31.68 35.2801H2.15997C1.36468 35.2801 0.719971 34.6353 0.719971 33.8401V16.7422C0.719971 16.5436 0.802022 16.3538 0.946713 16.2177Z" stroke="#002EFF" stroke-width="2"/>
<path fill-rule="evenodd" clip-rule="evenodd" d="M3.2312 5.86581C3.2312 5.05396 3.88933 4.39581 4.7012 4.39581H7.24235C8.05423 4.39581 8.71235 5.05397 8.71235 5.86581V9.63337L3.2312 14.971V5.86581ZM4.7312 5.89581V11.4166L7.21235 9.00036V5.89581H4.7312Z" fill="#002EFF"/>
<path fill-rule="evenodd" clip-rule="evenodd" d="M12.806 15.6887C14.0397 14.7194 15.5817 14.2042 17.15 14.2365L17.1501 14.2365C18.6168 14.2668 20.0573 14.7814 21.2114 15.6871C21.5372 15.9428 21.594 16.4142 21.3383 16.7401C21.0826 17.0659 20.6111 17.1228 20.2853 16.8671C19.3871 16.1621 18.2607 15.7598 17.1191 15.7362M17.1191 15.7362C15.8971 15.7111 14.6936 16.1132 13.7327 16.8682C13.4069 17.1241 12.9355 17.0675 12.6796 16.7418C12.4237 16.416 12.4803 15.9446 12.806 15.6887" fill="#002EFF"/>
<path fill-rule="evenodd" clip-rule="evenodd" d="M14.9275 18.4085C15.5171 17.9503 16.2516 17.7091 16.9979 17.7283L16.9979 17.7283C17.6962 17.7463 18.3793 17.9943 18.9266 18.4284C19.2511 18.6858 19.3055 19.1576 19.0481 19.4821C18.7907 19.8066 18.319 19.861 17.9945 19.6036C17.702 19.3716 17.3325 19.2375 16.9593 19.2278M16.9592 19.2278C16.5593 19.2175 16.1638 19.3475 15.848 19.5929C15.5209 19.8471 15.0497 19.788 14.7955 19.461C14.5414 19.1339 14.6004 18.6627 14.9275 18.4085" fill="#002EFF"/>
<path fill-rule="evenodd" clip-rule="evenodd" d="M10.463 12.8362C12.3244 11.2565 14.6939 10.3971 17.1354 10.4164L17.1354 10.4164C19.4694 10.435 21.7441 11.2633 23.5434 12.7501C23.8627 13.014 23.9076 13.4867 23.6438 13.806C23.3799 14.1253 22.9072 14.1703 22.5879 13.9064C21.0544 12.6392 19.1128 11.9322 17.1235 11.9164C15.0417 11.8999 13.0209 12.6328 11.4335 13.9799C11.1177 14.2479 10.6444 14.2092 10.3764 13.8933C10.1084 13.5775 10.1472 13.1042 10.463 12.8362Z" fill="#002EFF"/>
<path d="M20.9012 24.6469L14.8975 32.0192L14.8806 32.0124L16.2562 27.4405H13.9341C14.5809 25.6344 15.2193 23.8534 15.8597 22.066H19.5555C19.2051 22.921 18.8566 23.7735 18.4993 24.6469H20.9012Z" fill="#FD6C98"/>
</g>
<defs>
<clipPath id="clip0">
<rect width="33.84" height="36" fill="white"/>
</clipPath>
</defs>
</svg>
