<svg width="24" height="24" viewBox="0 0 24 24" fill="none" xmlns="http://www.w3.org/2000/svg">
<path d="M10.5472 6.85076C10.8367 6.6233 11.2558 6.67363 11.4833 6.96316C12.3369 8.04971 12.7906 9.40766 12.7621 10.7888C12.7354 12.0805 12.2823 13.3492 11.4847 14.3656C11.2573 14.6552 10.8383 14.7057 10.5486 14.4784C10.259 14.2511 10.2085 13.832 10.4358 13.5424C11.055 12.7534 11.4083 11.764 11.429 10.7613C11.4512 9.6881 11.0979 8.63096 10.4348 7.78684C10.2073 7.49731 10.2577 7.07821 10.5472 6.85076Z" fill="#979797"/>
<path d="M9.09052 8.82947C8.86456 8.53877 8.44573 8.48629 8.15503 8.71225C7.86433 8.93821 7.81185 9.35705 8.03781 9.64775C8.25274 9.92425 8.36651 10.2706 8.35748 10.6208C8.34906 10.9475 8.23159 11.2712 8.02843 11.5273C7.79963 11.8158 7.848 12.2351 8.13647 12.4639C8.42493 12.6927 8.84426 12.6444 9.07307 12.3559C9.45585 11.8733 9.6745 11.2709 9.69037 10.6551C9.70733 9.99703 9.49466 9.34939 9.09052 8.82947Z" fill="#979797"/>
<path d="M13.0522 4.82504C13.333 4.5868 13.7537 4.62124 13.9919 4.90197C15.3826 6.5407 16.1392 8.62662 16.1221 10.776C16.1058 12.8306 15.3765 14.8331 14.0677 16.4171C13.8332 16.7009 13.413 16.7408 13.1292 16.5063C12.8453 16.2718 12.8054 15.8516 13.0399 15.5677C14.1535 14.22 14.7749 12.5137 14.7888 10.7654C14.8033 8.93573 14.1592 7.15973 12.9753 5.7647C12.7371 5.48398 12.7715 5.06327 13.0522 4.82504Z" fill="#979797"/>
<path d="M10 20C9.63185 20 9.33337 20.2985 9.33337 20.6667C9.33337 21.0349 9.63185 21.3333 10 21.3333H14C14.3682 21.3333 14.6667 21.0349 14.6667 20.6667C14.6667 20.2985 14.3682 20 14 20H10Z" fill="#979797"/>
<path fill-rule="evenodd" clip-rule="evenodd" d="M3.33337 2.66667C3.33337 1.19391 4.52728 0 6.00004 0H18C19.4728 0 20.6667 1.19391 20.6667 2.66667V21.3333C20.6667 22.8061 19.4728 24 18 24H6.00004C4.52728 24 3.33337 22.8061 3.33337 21.3333V2.66667ZM6.00004 1.33333C5.26366 1.33333 4.66671 1.93029 4.66671 2.66667V21.3333C4.66671 22.0697 5.26366 22.6667 6.00004 22.6667H18C18.7364 22.6667 19.3334 22.0697 19.3334 21.3333V2.66667C19.3334 1.93029 18.7364 1.33333 18 1.33333H6.00004Z" fill="#979797"/>
</svg>
