<svg width="86" height="43" viewBox="0 0 86 43" fill="none" xmlns="http://www.w3.org/2000/svg">
<path d="M13.1125 1.36298C13.6661 0.512784 14.6119 0 15.6265 0H83C84.6569 0 86 1.34315 86 3V40C86 41.6569 84.6569 43 83 43H15.6265C14.6119 43 13.6661 42.4872 13.1125 41.637L1.06597 23.137C0.417959 22.1419 0.417959 20.8581 1.06597 19.863L13.1125 1.36298Z" fill="#42E8B4"/>
<circle cx="9" cy="21" r="3" fill="white"/>
<path d="M44.4382 8.312C44.4848 8.23733 44.5502 8.2 44.6342 8.2H46.2722C46.3188 8.2 46.3562 8.21867 46.3842 8.256C46.4215 8.284 46.4402 8.32133 46.4402 8.368V17.832C46.4402 17.8787 46.4215 17.9207 46.3842 17.958C46.3562 17.986 46.3188 18 46.2722 18H44.6342C44.5875 18 44.5455 17.986 44.5082 17.958C44.4802 17.9207 44.4662 17.8787 44.4662 17.832V11.658C44.4662 11.6207 44.4568 11.602 44.4382 11.602C44.4195 11.602 44.4008 11.616 44.3822 11.644L42.8982 13.968C42.8515 14.0427 42.7862 14.08 42.7022 14.08H41.8762C41.7922 14.08 41.7268 14.0427 41.6802 13.968L40.1962 11.644C40.1775 11.616 40.1588 11.6067 40.1402 11.616C40.1215 11.616 40.1122 11.6347 40.1122 11.672V17.832C40.1122 17.8787 40.0935 17.9207 40.0562 17.958C40.0282 17.986 39.9908 18 39.9442 18H38.3062C38.2595 18 38.2175 17.986 38.1802 17.958C38.1522 17.9207 38.1382 17.8787 38.1382 17.832V8.368C38.1382 8.32133 38.1522 8.284 38.1802 8.256C38.2175 8.21867 38.2595 8.2 38.3062 8.2H39.9442C40.0282 8.2 40.0935 8.23733 40.1402 8.312L42.2402 11.574C42.2682 11.63 42.2962 11.63 42.3242 11.574L44.4382 8.312ZM50.89 10.692C51.4967 10.692 52.038 10.7993 52.514 11.014C52.99 11.2193 53.3587 11.504 53.62 11.868C53.8907 12.232 54.026 12.638 54.026 13.086V17.832C54.026 17.8787 54.0073 17.9207 53.97 17.958C53.942 17.986 53.9047 18 53.858 18H52.22C52.1733 18 52.1313 17.986 52.094 17.958C52.066 17.9207 52.052 17.8787 52.052 17.832V17.37C52.052 17.342 52.0427 17.3233 52.024 17.314C52.0053 17.3047 51.9867 17.314 51.968 17.342C51.576 17.8553 50.946 18.112 50.078 18.112C49.35 18.112 48.762 17.9347 48.314 17.58C47.866 17.2253 47.642 16.7027 47.642 16.012C47.642 15.2933 47.894 14.738 48.398 14.346C48.902 13.9447 49.6207 13.744 50.554 13.744H51.982C52.0287 13.744 52.052 13.7207 52.052 13.674V13.366C52.052 13.058 51.9587 12.82 51.772 12.652C51.5853 12.4747 51.3053 12.386 50.932 12.386C50.6427 12.386 50.4 12.4373 50.204 12.54C50.0173 12.6427 49.896 12.7873 49.84 12.974C49.812 13.0767 49.7513 13.1233 49.658 13.114L47.964 12.89C47.852 12.8713 47.8007 12.8293 47.81 12.764C47.8473 12.372 48.0013 12.0173 48.272 11.7C48.552 11.3827 48.916 11.1353 49.364 10.958C49.8213 10.7807 50.33 10.692 50.89 10.692ZM50.61 16.642C51.0113 16.642 51.352 16.5347 51.632 16.32C51.912 16.1053 52.052 15.83 52.052 15.494V14.99C52.052 14.9433 52.0287 14.92 51.982 14.92H50.974C50.554 14.92 50.2227 14.9993 49.98 15.158C49.7467 15.3167 49.63 15.5407 49.63 15.83C49.63 16.082 49.7187 16.2827 49.896 16.432C50.0733 16.572 50.3113 16.642 50.61 16.642ZM50.218 9.936C50.1527 9.936 50.1107 9.91733 50.092 9.88C50.0733 9.84267 50.078 9.796 50.106 9.74L50.848 8.326C50.8853 8.242 50.9553 8.2 51.058 8.2H52.472C52.5373 8.2 52.5793 8.22333 52.598 8.27C52.626 8.30733 52.6213 8.354 52.584 8.41L51.59 9.824C51.5433 9.89867 51.478 9.936 51.394 9.936H50.218ZM58.2865 18.098C57.6611 18.098 57.1151 18.0093 56.6485 17.832C56.1818 17.6547 55.8178 17.4073 55.5565 17.09C55.3045 16.7727 55.1785 16.4133 55.1785 16.012V15.872C55.1785 15.8253 55.1925 15.788 55.2205 15.76C55.2578 15.7227 55.2998 15.704 55.3465 15.704H56.9005C56.9471 15.704 56.9845 15.7227 57.0125 15.76C57.0498 15.788 57.0685 15.8253 57.0685 15.872V15.886C57.0685 16.0913 57.1805 16.2687 57.4045 16.418C57.6378 16.558 57.9271 16.628 58.2725 16.628C58.5898 16.628 58.8465 16.5673 59.0425 16.446C59.2385 16.3153 59.3365 16.1567 59.3365 15.97C59.3365 15.802 59.2525 15.676 59.0845 15.592C58.9165 15.508 58.6411 15.4193 58.2585 15.326C57.8198 15.214 57.4745 15.1067 57.2225 15.004C56.6251 14.7987 56.1491 14.5467 55.7945 14.248C55.4398 13.9493 55.2625 13.52 55.2625 12.96C55.2625 12.2693 55.5285 11.7233 56.0605 11.322C56.6018 10.9113 57.3158 10.706 58.2025 10.706C58.7998 10.706 59.3225 10.804 59.7705 11C60.2185 11.1867 60.5638 11.4527 60.8065 11.798C61.0585 12.1433 61.1845 12.5353 61.1845 12.974C61.1845 13.0207 61.1658 13.0627 61.1285 13.1C61.1005 13.128 61.0631 13.142 61.0165 13.142H59.5185C59.4718 13.142 59.4298 13.128 59.3925 13.1C59.3645 13.0627 59.3505 13.0207 59.3505 12.974C59.3505 12.7687 59.2431 12.596 59.0285 12.456C58.8231 12.316 58.5478 12.246 58.2025 12.246C57.8945 12.246 57.6425 12.302 57.4465 12.414C57.2505 12.526 57.1525 12.68 57.1525 12.876C57.1525 13.0627 57.2458 13.2027 57.4325 13.296C57.6285 13.3893 57.9505 13.4873 58.3985 13.59C58.5011 13.618 58.6178 13.6507 58.7485 13.688C58.8791 13.716 59.0191 13.7533 59.1685 13.8C59.8311 13.996 60.3538 14.248 60.7365 14.556C61.1191 14.864 61.3105 15.312 61.3105 15.9C61.3105 16.5907 61.0351 17.132 60.4845 17.524C59.9431 17.9067 59.2105 18.098 58.2865 18.098ZM27.5864 32C27.4931 32 27.4324 31.9533 27.4044 31.86L25.1644 24.986C25.1551 24.9673 25.1504 24.944 25.1504 24.916C25.1504 24.832 25.2018 24.79 25.3044 24.79H27.1104C27.2131 24.79 27.2784 24.8367 27.3064 24.93L28.4544 29.172C28.4638 29.2 28.4778 29.214 28.4964 29.214C28.5151 29.214 28.5291 29.2 28.5384 29.172L29.6864 24.93C29.7144 24.8367 29.7798 24.79 29.8824 24.79L31.6884 24.818C31.7444 24.818 31.7864 24.8367 31.8144 24.874C31.8424 24.902 31.8471 24.9487 31.8284 25.014L29.6024 31.86C29.5744 31.9533 29.5138 32 29.4204 32H27.5864ZM38.763 27.66C38.819 28.0147 38.8377 28.4113 38.819 28.85C38.8097 28.962 38.749 29.018 38.637 29.018H34.311C34.255 29.018 34.2364 29.0413 34.255 29.088C34.283 29.2747 34.3344 29.4613 34.409 29.648C34.6517 30.1707 35.1464 30.432 35.893 30.432C36.4904 30.4227 36.9617 30.18 37.307 29.704C37.3444 29.648 37.3864 29.62 37.433 29.62C37.461 29.62 37.4937 29.6387 37.531 29.676L38.539 30.67C38.5857 30.7167 38.609 30.7587 38.609 30.796C38.609 30.8147 38.5904 30.852 38.553 30.908C38.245 31.2907 37.8484 31.5893 37.363 31.804C36.8777 32.0093 36.3457 32.112 35.767 32.112C34.9644 32.112 34.283 31.93 33.723 31.566C33.1724 31.202 32.7757 30.6933 32.533 30.04C32.337 29.5733 32.239 28.962 32.239 28.206C32.239 27.6927 32.309 27.24 32.449 26.848C32.6637 26.1853 33.037 25.658 33.569 25.266C34.1104 24.874 34.7497 24.678 35.487 24.678C36.4204 24.678 37.167 24.9487 37.727 25.49C38.2964 26.0313 38.6417 26.7547 38.763 27.66ZM35.501 26.386C34.913 26.386 34.5257 26.6613 34.339 27.212C34.3017 27.3333 34.269 27.4827 34.241 27.66C34.241 27.7067 34.2644 27.73 34.311 27.73H36.733C36.789 27.73 36.8077 27.7067 36.789 27.66C36.7424 27.3893 36.719 27.2587 36.719 27.268C36.635 26.988 36.4857 26.7733 36.271 26.624C36.0657 26.4653 35.809 26.386 35.501 26.386ZM43.7876 24.692C44.5343 24.692 45.1363 24.9207 45.5936 25.378C46.051 25.8353 46.2796 26.456 46.2796 27.24V31.832C46.2796 31.8787 46.261 31.9207 46.2236 31.958C46.1956 31.986 46.1583 32 46.1116 32H44.4736C44.427 32 44.385 31.986 44.3476 31.958C44.3196 31.9207 44.3056 31.8787 44.3056 31.832V27.646C44.3056 27.2727 44.1983 26.9693 43.9836 26.736C43.7783 26.5027 43.503 26.386 43.1576 26.386C42.8123 26.386 42.5323 26.5027 42.3176 26.736C42.1123 26.9693 42.0096 27.2727 42.0096 27.646V31.832C42.0096 31.8787 41.991 31.9207 41.9536 31.958C41.9256 31.986 41.8883 32 41.8416 32H40.2036C40.157 32 40.115 31.986 40.0776 31.958C40.0496 31.9207 40.0356 31.8787 40.0356 31.832V24.972C40.0356 24.9253 40.0496 24.888 40.0776 24.86C40.115 24.8227 40.157 24.804 40.2036 24.804H41.8416C41.8883 24.804 41.9256 24.8227 41.9536 24.86C41.991 24.888 42.0096 24.9253 42.0096 24.972V25.462C42.0096 25.49 42.019 25.5087 42.0376 25.518C42.0563 25.5273 42.0703 25.5227 42.0796 25.504C42.4623 24.9627 43.0316 24.692 43.7876 24.692ZM52.1169 22.368C52.1169 22.3213 52.1309 22.284 52.1589 22.256C52.1962 22.2187 52.2382 22.2 52.2849 22.2H53.9229C53.9695 22.2 54.0069 22.2187 54.0349 22.256C54.0722 22.284 54.0909 22.3213 54.0909 22.368V31.832C54.0909 31.8787 54.0722 31.9207 54.0349 31.958C54.0069 31.986 53.9695 32 53.9229 32H52.2849C52.2382 32 52.1962 31.986 52.1589 31.958C52.1309 31.9207 52.1169 31.8787 52.1169 31.832V31.37C52.1169 31.342 52.1075 31.328 52.0889 31.328C52.0702 31.3187 52.0515 31.3233 52.0329 31.342C51.6409 31.8553 51.1042 32.112 50.4229 32.112C49.7695 32.112 49.2049 31.93 48.7289 31.566C48.2622 31.202 47.9262 30.7027 47.7209 30.068C47.5622 29.5827 47.4829 29.018 47.4829 28.374C47.4829 27.7113 47.5669 27.1327 47.7349 26.638C47.9495 26.0407 48.2855 25.5693 48.7429 25.224C49.2095 24.8693 49.7835 24.692 50.4649 24.692C51.1369 24.692 51.6595 24.9253 52.0329 25.392C52.0515 25.42 52.0702 25.4293 52.0889 25.42C52.1075 25.4107 52.1169 25.392 52.1169 25.364V22.368ZM51.8229 29.816C52.0095 29.4707 52.1029 28.9993 52.1029 28.402C52.1029 27.7767 52.0002 27.2867 51.7949 26.932C51.5802 26.568 51.2675 26.386 50.8569 26.386C50.4182 26.386 50.0869 26.568 49.8629 26.932C49.6295 27.296 49.5129 27.7907 49.5129 28.416C49.5129 28.976 49.6109 29.4427 49.8069 29.816C50.0402 30.2173 50.3855 30.418 50.8429 30.418C51.2629 30.418 51.5895 30.2173 51.8229 29.816ZM56.6445 23.992C56.3272 23.992 56.0612 23.8893 55.8465 23.684C55.6412 23.4693 55.5385 23.2033 55.5385 22.886C55.5385 22.5593 55.6412 22.2933 55.8465 22.088C56.0519 21.8827 56.3179 21.78 56.6445 21.78C56.9712 21.78 57.2372 21.8827 57.4425 22.088C57.6479 22.2933 57.7505 22.5593 57.7505 22.886C57.7505 23.2033 57.6432 23.4693 57.4285 23.684C57.2232 23.8893 56.9619 23.992 56.6445 23.992ZM55.8045 32C55.7579 32 55.7159 31.986 55.6785 31.958C55.6505 31.9207 55.6365 31.8787 55.6365 31.832V24.958C55.6365 24.9113 55.6505 24.874 55.6785 24.846C55.7159 24.8087 55.7579 24.79 55.8045 24.79H57.4425C57.4892 24.79 57.5265 24.8087 57.5545 24.846C57.5919 24.874 57.6105 24.9113 57.6105 24.958V31.832C57.6105 31.8787 57.5919 31.9207 57.5545 31.958C57.5265 31.986 57.4892 32 57.4425 32H55.8045ZM63.6149 22.368C63.6149 22.3213 63.6289 22.284 63.6569 22.256C63.6942 22.2187 63.7362 22.2 63.7829 22.2H65.4209C65.4676 22.2 65.5049 22.2187 65.5329 22.256C65.5702 22.284 65.5889 22.3213 65.5889 22.368V31.832C65.5889 31.8787 65.5702 31.9207 65.5329 31.958C65.5049 31.986 65.4676 32 65.4209 32H63.7829C63.7362 32 63.6942 31.986 63.6569 31.958C63.6289 31.9207 63.6149 31.8787 63.6149 31.832V31.37C63.6149 31.342 63.6056 31.328 63.5869 31.328C63.5682 31.3187 63.5496 31.3233 63.5309 31.342C63.1389 31.8553 62.6022 32.112 61.9209 32.112C61.2676 32.112 60.7029 31.93 60.2269 31.566C59.7602 31.202 59.4242 30.7027 59.2189 30.068C59.0602 29.5827 58.9809 29.018 58.9809 28.374C58.9809 27.7113 59.0649 27.1327 59.2329 26.638C59.4476 26.0407 59.7836 25.5693 60.2409 25.224C60.7076 24.8693 61.2816 24.692 61.9629 24.692C62.6349 24.692 63.1576 24.9253 63.5309 25.392C63.5496 25.42 63.5682 25.4293 63.5869 25.42C63.6056 25.4107 63.6149 25.392 63.6149 25.364V22.368ZM63.3209 29.816C63.5076 29.4707 63.6009 28.9993 63.6009 28.402C63.6009 27.7767 63.4982 27.2867 63.2929 26.932C63.0782 26.568 62.7656 26.386 62.3549 26.386C61.9162 26.386 61.5849 26.568 61.3609 26.932C61.1276 27.296 61.0109 27.7907 61.0109 28.416C61.0109 28.976 61.1089 29.4427 61.3049 29.816C61.5382 30.2173 61.8836 30.418 62.3409 30.418C62.7609 30.418 63.0876 30.2173 63.3209 29.816ZM70.2566 32.112C69.4726 32.112 68.8006 31.9067 68.2406 31.496C67.6806 31.0853 67.2979 30.5253 67.0926 29.816C66.9619 29.3773 66.8966 28.9013 66.8966 28.388C66.8966 27.8373 66.9619 27.3427 67.0926 26.904C67.3073 26.2133 67.6946 25.672 68.2546 25.28C68.8146 24.888 69.4866 24.692 70.2706 24.692C71.0359 24.692 71.6893 24.888 72.2306 25.28C72.7719 25.6627 73.1546 26.1993 73.3786 26.89C73.5279 27.3567 73.6026 27.8467 73.6026 28.36C73.6026 28.864 73.5373 29.3353 73.4066 29.774C73.2013 30.502 72.8186 31.076 72.2586 31.496C71.7079 31.9067 71.0406 32.112 70.2566 32.112ZM70.2566 30.418C70.5646 30.418 70.8259 30.3247 71.0406 30.138C71.2553 29.9513 71.4093 29.6947 71.5026 29.368C71.5773 29.0693 71.6146 28.7427 71.6146 28.388C71.6146 27.996 71.5773 27.6647 71.5026 27.394C71.3999 27.0767 71.2413 26.8293 71.0266 26.652C70.8119 26.4747 70.5506 26.386 70.2426 26.386C69.9253 26.386 69.6593 26.4747 69.4446 26.652C69.2393 26.8293 69.0899 27.0767 68.9966 27.394C68.9219 27.618 68.8846 27.9493 68.8846 28.388C68.8846 28.808 68.9173 29.1347 68.9826 29.368C69.0759 29.6947 69.2299 29.9513 69.4446 30.138C69.6686 30.3247 69.9393 30.418 70.2566 30.418Z" fill="#2E1FC8"/>
</svg>
